<?xml version="1.0" standalone="no"?>
<!DOCTYPE svg PUBLIC "-//W3C//DTD SVG 20010904//EN"
 "http://www.w3.org/TR/2001/REC-SVG-20010904/DTD/svg10.dtd">
<svg version="1.0" xmlns="http://www.w3.org/2000/svg"
 width="3060.000000pt" height="1750.000000pt" viewBox="0 0 3060.000000 1750.000000"
 preserveAspectRatio="xMidYMid meet">
<metadata>
Created by potrace 1.15, written by Peter Selinger 2001-2017
</metadata>
<g transform="translate(0.000000,1750.000000) scale(0.100000,-0.100000)"
fill="#000000" stroke="none">
<path d="M0 8750 l0 -8750 15300 0 15300 0 0 8750 0 8750 -5770 0 c-3173 0
-5770 -2 -5770 -4 0 -4 55 -137 70 -171 5 -11 44 -105 86 -210 41 -104 80
-198 85 -208 15 -27 2 -55 -34 -75 -28 -15 -63 -17 -284 -17 -243 0 -253 1
-273 21 -21 20 -21 31 -23 280 -2 282 -4 274 59 352 l27 32 -152 0 -152 0 12
-22 c7 -13 15 -25 19 -28 4 -3 18 -30 32 -60 23 -52 25 -66 27 -238 1 -192 -9
-296 -32 -319 -10 -10 -49 -15 -142 -16 l-127 -2 -29 35 c-33 39 -38 83 -11
102 33 24 75 88 74 114 0 15 -8 32 -21 40 -13 10 -21 26 -21 44 0 16 -7 36
-16 44 -20 21 -84 21 -132 0 -49 -21 -198 -30 -217 -14 -8 7 -15 19 -15 27 0
15 78 92 94 93 5 0 44 36 87 79 43 44 93 88 111 98 32 17 8 18 -850 21 l-883
2 -47 -51 -47 -51 -52 6 c-48 6 -86 -1 -190 -33 -37 -11 -152 -102 -233 -185
-55 -57 -92 -71 -104 -40 -3 9 -6 58 -6 110 0 95 0 95 42 157 23 34 45 64 50
65 4 2 8 8 8 13 0 5 -68 9 -156 9 -178 0 -169 7 -107 -88 l38 -57 -3 -189 -2
-190 -31 -28 c-41 -38 -56 -45 -117 -53 -36 -5 -69 -19 -110 -46 l-57 -39
-142 0 -142 0 -51 45 c-28 25 -77 58 -109 75 -103 52 -101 44 -101 326 l0 244
-59 0 -60 0 -3 -603 c-3 -516 -5 -606 -18 -625 -20 -29 -237 -202 -253 -202
-37 0 -37 8 -37 727 l0 703 -140 0 -140 0 0 -867 0 -866 -27 -35 c-28 -37
-168 -132 -194 -132 -9 0 -22 6 -28 14 -9 10 -10 252 -7 950 l5 936 -65 0 -64
0 -1 -162 c-1 -90 -4 -208 -8 -263 l-6 -100 -46 -25 c-66 -36 -118 -72 -161
-113 -48 -45 -82 -50 -370 -51 -194 -1 -219 1 -235 16 -27 27 -40 237 -25 390
13 126 17 139 84 237 21 30 38 58 38 63 0 4 -81 8 -180 8 -99 0 -180 -4 -180
-8 0 -5 11 -19 25 -32 14 -13 37 -44 51 -69 l25 -46 0 -259 c0 -234 -2 -260
-18 -278 -17 -20 -27 -20 -273 -15 -257 5 -302 11 -314 44 -3 8 7 47 23 86 49
124 158 388 195 475 20 46 36 88 36 93 0 5 -2461 9 -6165 9 l-6165 0 0 -8750z
m18988 7974 c-4 -3 -27 -6 -51 -6 -32 1 -44 -3 -44 -13 0 -16 8 -18 117 -20
183 -3 263 -24 309 -79 9 -10 29 -16 57 -16 53 0 60 -9 107 -141 19 -53 39
-104 45 -115 5 -10 13 -40 17 -66 11 -70 -10 -95 -250 -304 -49 -43 -101 -89
-114 -101 -13 -12 -35 -24 -48 -27 -29 -8 -122 25 -166 58 -25 19 -46 26 -79
26 -35 0 -50 6 -71 28 -15 15 -27 31 -27 35 0 10 -30 47 -70 85 l-35 33 -7
182 c-4 100 -4 218 -1 262 4 69 8 83 29 103 14 12 35 22 47 22 40 1 102 12
120 22 13 7 15 13 8 22 -8 10 3 13 51 15 35 1 59 -1 56 -5z m-492 -60 c27 -15
55 -34 62 -42 9 -12 12 -82 12 -274 l0 -258 -42 -53 c-24 -28 -62 -84 -86
-123 -25 -42 -52 -75 -65 -79 -12 -4 -81 -9 -153 -12 -145 -6 -192 3 -218 42
-11 16 -29 26 -58 30 -37 5 -53 1 -112 -30 -69 -37 -108 -41 -119 -12 -3 8 -8
60 -12 116 l-8 102 57 52 c32 29 66 72 76 95 26 57 58 96 150 177 25 22 61 60
80 85 93 119 171 199 205 209 17 4 64 7 106 5 59 -3 87 -10 125 -30z m-5895
-53 c72 -22 74 -27 77 -270 2 -119 0 -231 -3 -250 -4 -19 -19 -46 -34 -60 -16
-15 -43 -52 -61 -84 -17 -31 -36 -59 -40 -62 -5 -3 -11 -19 -15 -35 -12 -56
-33 -60 -337 -59 -330 0 -339 2 -351 74 -4 28 -5 91 -2 140 4 77 2 94 -14 118
-23 35 -23 34 56 237 64 165 86 200 127 200 12 0 26 4 32 9 5 5 32 21 59 36
l50 26 210 -5 c116 -3 226 -10 246 -15z m766 14 c18 -3 51 -22 74 -41 24 -20
65 -48 92 -62 140 -76 127 -34 127 -393 0 -307 0 -308 -22 -323 -19 -14 -68
-16 -329 -16 l-306 0 -28 27 c-15 15 -36 46 -47 68 -22 42 -58 93 -95 134 -31
35 -34 66 -28 266 6 182 18 282 39 310 6 9 34 19 61 23 63 9 419 14 462 7z
m4201 -850 c2 -94 -5 -120 -29 -110 -17 7 -79 98 -79 117 0 26 61 89 84 86 19
-3 21 -10 24 -93z m-5922 -140 c15 -23 16 -62 12 -390 -6 -445 3 -415 -131
-415 -128 0 -131 3 -135 123 -4 111 13 187 83 362 24 61 58 151 76 200 36 105
56 145 69 145 5 0 17 -11 26 -25z m6654 -5 c28 -44 0 -81 -149 -194 -86 -66
-133 -85 -157 -65 -24 19 -16 43 41 125 30 43 55 87 55 97 0 9 9 26 21 38 19
19 30 21 100 17 57 -2 83 -7 89 -18z m-5897 -4 c39 -2 78 -11 91 -20 14 -8 59
-67 102 -131 l77 -115 -7 -258 c-6 -226 -9 -260 -25 -282 l-18 -25 -274 3
c-252 3 -276 4 -299 22 -14 11 -69 49 -122 85 -53 37 -101 72 -106 78 -23 31
-35 129 -28 229 4 57 11 162 15 233 4 72 13 140 19 152 7 13 27 27 45 33 29 9
330 6 530 -4z m1201 -6 c53 -22 60 -40 54 -137 -4 -66 -4 -67 -58 -112 -90
-77 -260 -250 -260 -264 0 -13 -154 -166 -248 -245 -79 -66 -103 -75 -184 -70
-111 8 -109 4 -116 259 -5 236 3 302 43 355 14 18 25 35 25 38 0 18 97 145
128 168 l37 27 267 1 c242 0 270 -2 312 -20z m6370 -476 c3 -9 6 -71 6 -139 0
-94 -3 -125 -14 -134 -8 -7 -59 -15 -113 -18 -90 -5 -100 -3 -120 16 -32 30
-29 45 16 94 21 23 45 56 54 73 22 42 122 123 153 124 7 0 15 -7 18 -16z m1
-436 c2 -7 6 -317 9 -689 4 -525 2 -680 -7 -693 -11 -15 -26 -16 -121 -10
-149 10 -146 6 -146 182 0 85 4 142 11 149 7 7 12 97 15 249 11 686 12 715 31
736 15 17 27 19 71 15 68 -7 82 -2 82 32 0 15 3 31 7 34 11 12 43 8 48 -5z
m-7405 -85 c39 -13 59 -27 68 -46 22 -45 -1 -74 -109 -136 -139 -81 -203 -121
-355 -222 -177 -118 -326 -209 -343 -209 -11 0 -25 9 -31 19 -12 23 -12 157
-1 315 6 90 11 112 26 120 66 40 156 103 190 136 22 21 47 40 55 44 8 3 112 4
230 2 183 -2 223 -6 270 -23z m-940 -20 c13 -12 15 -63 14 -341 0 -180 -3
-339 -7 -354 -4 -15 -32 -46 -69 -76 -35 -27 -76 -61 -91 -76 -33 -31 -72 -35
-80 -7 -8 31 -3 855 6 868 11 17 207 5 227 -14z m7755 -43 c10 -11 23 -20 30
-20 7 0 20 -9 30 -20 23 -26 27 -25 76 7 31 21 45 24 57 16 15 -9 17 -32 14
-199 -3 -163 -6 -191 -21 -207 -38 -40 -71 6 -72 101 0 52 -3 59 -35 86 -19
16 -51 34 -70 41 -34 11 -124 106 -124 130 0 6 7 22 16 35 36 54 69 63 99 30z
m961 -222 c14 -27 52 -118 84 -201 32 -84 70 -179 86 -212 l28 -60 1 -385 c0
-212 4 -653 9 -980 7 -474 7 -600 -3 -619 -12 -22 -17 -23 -70 -17 -67 9 -64
8 -124 5 -26 -1 -53 3 -59 9 -15 15 -25 1049 -11 1078 7 12 7 50 0 109 -5 50
-10 360 -11 690 -1 476 2 605 12 623 17 29 27 22 58 -40z m-9256 -117 c13 -25
14 -715 1 -740 -18 -33 -159 -133 -183 -129 -26 3 -25 -27 -16 333 l5 210 38
80 c20 44 50 113 66 154 27 70 53 111 70 111 5 0 13 -9 19 -19z m9707 -990
c87 -212 123 -305 123 -313 0 -4 -8 -12 -18 -17 -14 -8 -40 1 -110 35 -74 37
-93 51 -99 72 -9 38 -10 383 0 406 7 18 10 17 28 -13 11 -19 45 -95 76 -170z
m231 -583 c5 -7 40 -89 76 -183 37 -93 92 -228 123 -300 30 -71 64 -155 76
-185 11 -30 26 -65 34 -77 8 -12 13 -37 11 -55 l-3 -33 -70 -8 c-114 -13 -542
-5 -557 11 -10 10 -14 83 -16 310 -2 163 0 307 3 319 6 24 108 105 172 136 23
11 44 29 46 39 9 32 84 50 105 26z m-5345 -2364 c18 -9 56 -39 85 -65 30 -27
58 -49 64 -49 6 0 7 -7 4 -16 -4 -12 9 -32 44 -65 39 -37 50 -55 50 -79 0 -24
10 -41 41 -71 33 -31 40 -45 36 -65 -3 -16 1 -28 8 -31 8 -2 21 -19 29 -38 13
-26 14 -39 5 -66 -13 -39 -52 -79 -78 -79 -22 0 -43 81 -34 133 5 34 -20 92
-36 82 -4 -2 -8 2 -8 10 0 8 5 11 10 8 6 -4 7 -1 1 8 -5 8 -9 18 -9 23 0 20
-23 15 -39 -9 -20 -31 -27 -31 -64 0 -34 28 -48 31 -65 12 -17 -18 -19 -37 -4
-37 8 0 7 -4 -3 -10 -8 -5 -10 -10 -4 -10 6 0 11 -7 11 -15 0 -9 -4 -11 -11
-6 -6 5 -22 7 -35 5 -15 -3 -28 2 -34 11 -4 8 -12 13 -18 10 -5 -4 -6 2 -2 11
4 11 2 15 -4 11 -6 -4 -17 9 -26 31 -8 20 -24 46 -36 56 -12 11 -21 29 -21 41
0 13 -7 28 -15 35 -8 7 -15 9 -15 4 0 -19 -33 40 -40 71 -5 24 -3 40 7 55 8
12 16 33 18 48 1 14 7 28 11 29 5 2 20 10 34 17 35 19 105 19 143 0z m281
-1090 c8 -3 18 -22 22 -42 3 -21 16 -81 29 -134 23 -91 23 -101 9 -153 -8 -31
-19 -65 -24 -75 -26 -48 4 -191 63 -305 31 -60 32 -61 32 -225 1 -183 10 -231
60 -330 20 -40 27 -87 16 -109 -10 -17 -15 -19 -42 -9 -44 15 -56 47 -33 89
10 19 17 45 15 59 -3 28 -28 60 -47 60 -6 0 -26 16 -43 36 -30 34 -31 38 -25
97 6 61 6 62 -36 115 -23 28 -48 52 -56 52 -21 0 28 74 51 79 10 2 26 13 36
24 15 20 15 23 0 44 -20 28 -37 29 -51 4 -9 -18 -13 -19 -37 -6 -26 14 -29 13
-59 -16 -28 -27 -32 -29 -38 -12 -5 13 -1 22 16 33 50 33 57 46 56 114 0 61 2
67 31 92 49 41 55 60 35 102 -22 47 -34 101 -24 107 18 11 28 174 14 247 -6
34 -1 68 10 68 2 0 11 -3 20 -6z m6840 -913 c8 -15 33 -75 56 -132 22 -57 45
-113 50 -124 41 -90 91 -227 88 -242 -3 -15 -17 -19 -88 -25 -92 -8 -97 -6
-131 48 -19 31 -21 53 -26 248 -5 209 0 256 27 256 5 0 16 -13 24 -29z m2656
-2867 c-6 -14 -10 -69 -10 -123 0 -134 -6 -161 -36 -161 -26 0 -33 -27 -13
-47 8 -8 -1 -20 -30 -44 -30 -23 -41 -40 -41 -59 0 -42 -22 -55 -59 -35 -34
17 -39 36 -16 55 25 20 19 48 -8 43 -22 -4 -23 -2 -19 27 5 32 40 80 60 80 12
0 24 29 17 41 -9 13 13 48 59 97 24 26 40 52 38 62 -2 11 7 26 23 36 18 12 24
22 20 35 -4 13 -1 19 9 19 13 0 14 -5 6 -26z m-2430 -409 c10 -12 10 -21 1
-42 -10 -22 -9 -29 9 -48 11 -12 20 -29 20 -38 0 -9 4 -18 9 -21 4 -3 11 -19
14 -36 5 -22 12 -30 27 -30 16 0 20 -5 16 -17 -30 -105 -30 -101 -11 -160 25
-82 43 -113 64 -113 10 0 21 -7 25 -15 8 -23 -4 -45 -25 -45 -11 0 -22 -7 -25
-15 -7 -19 -43 -20 -50 -2 -3 9 -16 12 -35 9 -17 -2 -40 0 -52 6 -12 6 -31 12
-42 14 -14 2 -20 11 -20 31 -1 16 -7 32 -14 36 -7 5 -16 24 -20 42 -5 26 -13
35 -30 37 -13 2 -28 -2 -32 -10 -7 -11 -11 -10 -19 2 -16 24 -13 60 5 54 19
-8 19 15 0 39 -14 20 -11 41 11 67 7 8 15 33 19 55 4 22 11 54 16 70 5 17 14
49 20 73 8 35 17 46 42 57 42 19 62 18 77 0z m2398 -168 c2 -10 -3 -26 -11
-35 -7 -9 -17 -25 -20 -34 -5 -15 0 -18 36 -18 45 0 87 -27 87 -55 0 -7 11
-27 25 -43 14 -17 28 -45 31 -64 3 -18 13 -48 22 -66 14 -27 15 -34 3 -41 -7
-5 -11 -13 -8 -18 3 -5 2 -15 -2 -22 -6 -8 -24 5 -60 46 -45 50 -52 62 -48 89
6 38 -1 50 -36 63 -17 7 -34 24 -42 44 -8 19 -25 41 -38 50 l-25 16 22 56 c17
44 25 55 41 53 11 -2 21 -11 23 -21z m835 -25 c0 -11 4 -19 8 -16 4 2 9 1 11
-3 1 -5 21 -17 43 -28 28 -14 41 -28 44 -45 1 -14 7 -27 11 -30 4 -3 6 -26 3
-53 -5 -39 -8 -45 -19 -36 -11 9 -20 6 -39 -15 -38 -41 -43 -37 -59 37 -5 23
-11 27 -41 27 -29 0 -37 5 -51 31 l-16 32 41 -7 c23 -3 41 -3 41 0 0 3 -11 19
-25 36 -26 31 -32 48 -15 48 6 0 10 6 10 14 0 8 7 22 16 31 19 19 34 9 37 -23z
m-3619 -516 c14 -21 26 -46 26 -55 0 -9 20 -43 45 -75 35 -47 43 -65 38 -85
-12 -50 -23 -71 -37 -71 -7 0 -20 -9 -27 -21 l-14 -21 -60 30 c-33 17 -72 33
-87 36 -37 8 -38 47 -2 71 26 17 26 17 6 31 -12 8 -25 34 -31 64 -18 84 -15
106 25 149 l37 39 28 -26 c15 -15 39 -45 53 -66z m3190 -22 c12 -31 7 -36 -34
-29 -25 4 -40 3 -40 -3 0 -6 -12 -24 -26 -42 -24 -27 -26 -36 -20 -80 4 -32 3
-50 -4 -50 -5 0 -10 4 -10 9 0 4 -15 8 -32 7 -30 -1 -33 -4 -30 -29 2 -16 -6
-40 -17 -56 -17 -23 -27 -28 -55 -26 -67 6 -96 44 -45 60 23 7 23 14 4 39 -24
32 -17 56 28 100 92 90 139 114 223 115 39 1 53 -3 58 -15z m-1149 -214 c55
-6 110 -18 123 -26 19 -13 22 -13 22 1 0 42 69 -5 89 -60 17 -47 7 -55 -71
-55 -50 0 -58 -3 -58 -19 0 -21 19 -31 56 -31 17 0 27 -8 34 -25 5 -14 14 -25
20 -25 5 0 10 -5 10 -11 0 -6 -9 -8 -20 -4 -26 8 -26 -9 0 -35 19 -19 21 -19
27 -3 14 40 93 94 93 64 0 -18 32 -41 56 -41 32 0 32 -27 -1 -42 -18 -8 -28
-8 -39 1 -12 10 -26 5 -75 -28 -33 -23 -64 -41 -69 -41 -5 0 -14 11 -20 25 -6
14 -20 25 -30 25 -22 0 -72 40 -72 58 0 6 -13 18 -29 26 -16 9 -37 27 -48 41
l-19 26 -26 -20 c-14 -12 -40 -21 -57 -21 -26 0 -31 4 -31 23 0 33 -10 40 -32
20 -23 -21 -23 -30 2 -38 20 -6 20 -6 0 -28 -11 -11 -20 -29 -20 -38 0 -35
-23 -31 -61 10 -22 23 -39 44 -39 47 0 14 32 64 41 64 5 0 21 11 34 25 18 18
25 35 25 65 0 22 -3 40 -6 40 -4 0 -17 -11 -30 -25 -29 -32 -57 -33 -52 -3 2
14 24 34 63 58 53 32 62 35 85 24 14 -6 70 -17 125 -24z m3 -252 c7 -7 12 -26
12 -44 0 -36 36 -80 73 -89 23 -6 42 -37 30 -49 -3 -2 -32 9 -66 25 -34 16
-69 26 -79 23 -9 -2 -34 4 -55 16 -37 20 -37 22 2 24 16 1 20 7 18 31 -3 54 6
75 30 75 13 0 28 -5 35 -12z m1358 -480 c5 -7 3 -8 -6 -3 -8 5 -11 4 -7 -2 4
-6 27 -16 52 -23 54 -15 92 -55 73 -77 -6 -8 -20 -12 -30 -10 -13 4 -18 0 -18
-14 0 -11 -7 -19 -17 -19 -19 0 -83 66 -83 86 0 6 -9 14 -20 17 -12 3 -20 14
-20 26 0 18 4 20 24 15 13 -3 27 -1 30 5 9 14 13 14 22 -1z m-4721 -178 c18
-35 19 -57 3 -63 -11 -4 14 -30 53 -57 4 -3 9 -14 11 -25 4 -25 -39 -35 -48
-11 -9 23 -27 20 -21 -4 4 -15 -5 -25 -39 -45 -24 -14 -44 -30 -44 -35 0 -5
-13 -8 -30 -8 -16 1 -36 -5 -45 -12 -13 -11 -19 -10 -35 5 -25 23 -26 39 -1
32 23 -6 51 9 51 28 0 13 62 55 83 55 28 1 38 16 28 43 -7 18 -7 27 2 30 9 3
9 10 -1 31 -27 61 3 95 33 36z m2196 -250 c22 0 80 -51 77 -68 -2 -11 8 -23
27 -32 16 -8 35 -26 41 -38 7 -13 17 -29 23 -35 13 -13 15 -37 1 -37 -5 0 -20
-11 -34 -25 -32 -32 -42 -32 -55 5 -5 17 -17 30 -26 30 -9 0 -43 14 -76 31
-61 32 -75 33 -137 8 -36 -15 -64 -5 -70 24 -5 23 54 84 87 90 25 5 28 10 27
43 -1 31 4 40 23 50 22 11 27 9 52 -17 15 -16 33 -29 40 -29z m-252 -192 c6
-16 4 -25 -5 -31 -8 -4 -14 -16 -14 -26 0 -20 25 -35 41 -25 15 9 10 -50 -7
-74 -8 -12 -24 -22 -36 -22 -16 0 -18 -3 -9 -13 8 -10 7 -19 -3 -33 -14 -18
-15 -18 -21 -1 -4 9 -5 23 -2 31 9 23 -19 38 -74 41 -59 3 -79 17 -63 43 8 12
22 16 51 14 40 -3 41 -2 79 57 22 33 43 60 47 60 4 1 11 -9 16 -21z m466 -70
c22 -18 55 -51 75 -72 19 -22 54 -59 78 -82 l44 -42 -24 -16 c-17 -11 -38 -14
-80 -9 -51 5 -58 9 -69 34 -6 17 -22 32 -35 35 -51 13 -82 87 -49 114 11 9 14
22 10 42 -8 36 1 35 50 -4z m-3145 -158 c11 -11 20 -26 20 -34 0 -7 22 -42 49
-77 55 -73 67 -107 46 -135 -8 -10 -15 -38 -15 -61 0 -39 -3 -44 -37 -62 -36
-18 -39 -23 -56 -101 -18 -80 -19 -82 -37 -63 -10 11 -25 34 -34 50 -21 42
-74 85 -96 78 -9 -3 -28 3 -41 14 -23 19 -23 21 -8 49 12 21 15 44 12 75 -4
36 -1 49 16 66 17 17 20 28 15 61 -5 30 -2 48 15 75 11 20 21 43 21 51 0 9 6
14 13 11 6 -2 11 -11 9 -18 -1 -8 5 -5 13 6 9 11 20 20 25 20 4 0 12 3 16 8
13 12 33 8 54 -13z m2425 -210 c10 -11 24 -20 31 -20 7 0 25 -11 40 -24 l28
-23 -42 -27 c-24 -15 -58 -44 -77 -65 -19 -21 -48 -41 -64 -44 -23 -5 -28 -10
-24 -25 3 -15 -3 -22 -28 -31 -17 -6 -45 -11 -60 -11 -15 0 -31 -5 -35 -11 -4
-8 -9 -7 -15 2 -5 8 -3 20 5 29 7 8 16 27 20 41 3 15 15 29 26 32 11 3 20 14
20 24 0 10 12 30 28 45 37 35 49 51 69 92 19 42 49 47 78 16z m-1465 -96 c68
-44 100 -71 100 -84 0 -25 -51 -65 -61 -48 -4 6 -24 13 -43 13 -20 1 -39 5
-43 8 -3 4 -17 7 -31 7 -15 0 -26 7 -29 20 -6 24 -30 26 -54 4 -23 -21 -39
-10 -39 25 0 31 64 121 87 121 7 0 58 -30 113 -66z m-152 -144 c4 -43 19 -61
32 -40 9 13 10 13 10 0 0 -13 1 -13 11 0 8 12 9 9 5 -12 -7 -31 6 -44 24 -23
8 9 8 15 2 15 -6 0 -13 -5 -15 -10 -3 -6 -4 -5 -3 2 4 18 47 23 57 6 5 -7 9
-23 9 -35 0 -12 7 -28 15 -36 8 -8 12 -17 10 -21 -3 -3 -2 -4 1 -1 9 6 47 -15
40 -22 -3 -3 0 -15 5 -26 10 -18 9 -19 -12 -13 -13 4 -36 9 -50 10 -25 3 -26
2 -21 -45 4 -40 1 -50 -14 -56 -12 -4 -21 -1 -28 11 -6 10 -26 38 -43 61 -23
30 -33 55 -33 79 0 20 -4 36 -9 36 -24 0 -54 134 -34 154 17 17 38 -1 41 -34z
m640 -368 c-12 -16 -11 -16 7 -2 23 18 75 26 75 11 0 -5 7 -16 15 -25 13 -13
13 -15 -4 -21 -10 -3 -26 -26 -37 -50 -19 -46 -31 -53 -65 -35 -10 6 -35 11
-54 12 -20 1 -31 4 -25 8 7 4 10 24 8 46 -3 38 -2 39 40 52 25 8 39 18 35 24
-3 7 -1 8 6 4 9 -6 9 -12 -1 -24z"/>
</g>
</svg>
